# xmcd
#
# Track frame offsets: 
#        180
#        71173
#        102171
#        149106
#        191207
#        241111
#
# Disc length: 4161 seconds
#
# Revision: 1
# Processed by: cddbd v1.5.2PL0 Copyright (c) Steve Scherf et al.
# Submitted via: ExactAudioCopy v0.95b2
#
DISCID=5b103f06
DTITLE=Stanley Cowell, Bobby Hutcherson, Reggie Workman et al. - Brill
DTITLE=iant Circles
DYEAR=1969
DGENRE=Jazz
TTITLE0=Brilliant Circles (Take 3)
TTITLE1=Earthly Heavens
TTITLE2=Musical Players
TTITLE3=Boo Ann's Grand
TTITLE4=Bobby's Tune
TTITLE5=Brilliant Circles (Take 2)
EXTD=YEAR: 1969
EXTT0=
EXTT1=
EXTT2=
EXTT3=
EXTT4=
EXTT5=
PLAYORDER=
